PathFileType	4	(X/Y/Z)	C:/Users/opensim2020/Desktop/walking_exp_matlab/subject06_walking21_straight_01.trc																																																																																																																																		
DataRate	CameraRate	NumFrames	NumMarkers	Units	OrigDataRate	OrigDataStartFrame	OrigNumFrames																																																																																																																														
100	100	4	44	mm	100	836	155																																																																																																																														
Frame#	Time	LFHD			RFHD			LBHD			RBHD			C7			T10			CLAV			STRN			RBAK			LSHO			LUPA			LELB			LFRM			LWRA			LWRB			LFIN			RSHO			RUPA			RELB			RFRM			RWRA			RWRB			RFIN			LASI			RASI			LPSI			RPSI			LTHI			LKNE			LTIB			LANK			LHEE			LTOE			RTHI			RKNE			RTIB			RANK			RHEE			RTOE			*39			*40			*41			*42			*43		
		X1	Y1	Z1	X2	Y2	Z2	X3	Y3	Z3	X4	Y4	Z4	X5	Y5	Z5	X6	Y6	Z6	X7	Y7	Z7	X8	Y8	Z8	X9	Y9	Z9	X10	Y10	Z10	X11	Y11	Z11	X12	Y12	Z12	X13	Y13	Z13	X14	Y14	Z14	X15	Y15	Z15	X16	Y16	Z16	X17	Y17	Z17	X18	Y18	Z18	X19	Y19	Z19	X20	Y20	Z20	X21	Y21	Z21	X22	Y22	Z22	X23	Y23	Z23	X24	Y24	Z24	X25	Y25	Z25	X26	Y26	Z26	X27	Y27	Z27	X28	Y28	Z28	X29	Y29	Z29	X30	Y30	Z30	X31	Y31	Z31	X32	Y32	Z32	X33	Y33	Z33	X34	Y34	Z34	X35	Y35	Z35	X36	Y36	Z36	X37	Y37	Z37	X38	Y38	Z38	X39	Y39	Z39	X40	Y40	Z40	X41	Y41	Z41	X42	Y42	Z42	X43	Y43	Z43	X44	Y44	Z44
																																																																																																																																					
78	0.77	-9.42575	1662.68311	-1064.64001	-21.19145	1644.46594	-934.55383	-143.09921	1614.34644	-1080.17212	-153.41437	1600.62256	-952.16003	-154.28055	1451.38867	-1026.47778	-199.53188	1124.49866	-1017.71411	-46.36147	1371.52209	-1023.94128	-11.41554	1197.03833	-1032.53357	-234.05693	1284.04639	-949.32861	-100.96373	1405.52539	-1186.08862	-89.03786	1204.34937	-1261.97717	-79.90676	1091.99646	-1277.25342	-18.09687	955.05566	-1298.42285	70.9941	862.74536	-1254.52588	15.65243	840.30829	-1292.84973	79.83684	777.06763	-1294.69653	-94.19588	1404.38196	-863.09692	-159.75221	1214.60071	-776.65796	-168.01283	1092.25586	-763.81097	-173.98039	972.12109	-744.27466	-140.7395	823.75977	-771.95642	-194.3474	835.21271	-732.85345	-172.38998	753.28265	-730.42462	-30.14497	963.76697	-1131.89575	-21.99329	966.77118	-912.62823	-185.38782	991.6709	-1097.5675	-173.52895	988.16803	-930.33112	-98.3811	646.1629	-1181.58093	-96.79445	482.70593	-1152.7301	-165.05919	233.14572	-1139.13525	-196.09241	65.14118	-1089.4353	-239.42171	53.63629	-1045.55103	-54.07861	34.62001	-1084.60022	17.05025	645.18622	-862.52893	68.0827	531.88379	-892.03088	-28.56729	288.7836	-890.21088	-98.69044	115.77935	-928.33582	-143.19815	99.06367	-974.17859	35.56858	46.63018	-924.07281	-112.76286	1701.58459	-1012.39587	NaN	NaN	NaN	NaN	NaN	NaN	NaN	NaN	NaN	NaN	NaN	NaN
79	0.78	3.98219	1661.44031	-1064.33777	-7.97273	1642.94031	-934.21564	-129.73706	1613.33533	-1080.14795	-140.31638	1599.37585	-952.10309	-141.19739	1450.3136	-1026.646	-186.80334	1123.50781	-1017.94836	-33.36804	1370.30566	-1024.2113	1.26535	1195.76062	-1033.37317	-221.11737	1282.93738	-949.87701	-87.98817	1404.66577	-1186.33984	-73.63874	1203.86975	-1262.25256	-61.77866	1091.66565	-1277.50659	4.87917	956.94568	-1297.9834	97.08955	868.39282	-1253.03918	42.95307	843.55096	-1291.64087	109.33398	782.57263	-1292.23352	-81.18408	1402.98926	-863.33508	-148.07144	1213.6051	-777.17761	-157.31717	1091.4082	-764.435	-164.74213	971.31183	-744.78253	-133.36896	822.5329	-772.2417	-186.769	834.7865	-733.03833	-165.90096	752.487	-730.72119	-18.14242	962.31561	-1132.89514	-8.78852	966.05585	-913.57434	-173.30789	990.45868	-1097.41663	-160.34189	987.16113	-930.31482	-88.66901	644.96619	-1180.98364	-90.25946	481.38385	-1152.48059	-162.0466	232.81213	-1138.5365	-195.48814	65.25838	-1089.00647	-239.44437	54.36216	-1044.73022	-53.67374	34.66277	-1084.65479	32.49548	645.99457	-861.74988	84.5918	533.16644	-891.84991	-0.93282	285.3031	-890.77008	-60.30878	108.39761	-929.7442	-104.20491	90.08236	-975.67065	76.87434	45.35083	-923.90582	-99.39295	1700.37683	-1012.15564	NaN	NaN	NaN	NaN	NaN	NaN	NaN	NaN	NaN	NaN	NaN	NaN
80	0.79	17.4167	1659.93616	-1064.02734	5.18591	1641.34363	-933.86328	-116.39105	1612.13733	-1080.0686	-127.02447	1597.86694	-952.09204	-128.32355	1449.22546	-1026.90845	-174.02614	1122.31458	-1018.07959	-20.38983	1368.90369	-1024.48657	14.03906	1194.29321	-1034.11816	-208.15067	1281.62354	-950.28839	-74.8755	1403.68872	-1186.55371	-58.3294	1203.25977	-1262.45178	-44.03713	1091.43835	-1277.88354	27.46286	958.93262	-1297.40417	122.76055	874.36761	-1251.38916	69.86868	847.12439	-1290.23267	138.4884	788.34082	-1289.13025	-68.17407	1401.39673	-863.54871	-136.15175	1212.49915	-777.43799	-146.56291	1090.37842	-764.94226	-155.29567	970.39081	-745.28363	-125.51421	821.21698	-772.44244	-179.01405	834.02704	-733.52356	-159.14117	751.51093	-730.90161	-6.11038	960.62177	-1133.90222	4.3796	964.87842	-914.3396	-161.06247	988.99182	-1097.30371	-147.28651	985.96716	-930.22571	-79.28959	643.59625	-1180.73523	-83.8094	479.96402	-1152.2572	-159.26012	232.33273	-1138.09631	-194.9671	65.45238	-1088.55774	-239.33821	55.30566	-1043.66345	-53.49255	34.7799	-1084.71472	47.14433	645.74072	-861.60498	100.7501	533.81287	-891.51215	26.88239	281.83759	-891.19165	-21.70134	101.82354	-930.8429	-64.02213	81.84545	-977.26337	117.84809	44.25536	-924.13617	-85.99892	1699.02808	-1011.81677	NaN	NaN	NaN	NaN	NaN	NaN	NaN	NaN	NaN	NaN	NaN	NaN
81	0.8	30.77788	1658.20142	-1063.64258	18.42696	1639.46692	-933.47565	-103.04623	1610.72839	-1079.89819	-113.88449	1596.18738	-951.93872	-115.18645	1447.74719	-1027.03235	-161.21663	1121.10364	-1018.1955	-7.33339	1367.30957	-1024.72083	26.85705	1192.65137	-1034.82922	-195.33742	1280.14832	-950.58087	-61.80297	1402.50598	-1186.61487	-42.96316	1202.52466	-1262.64746	-26.35273	1090.90637	-1277.97937	49.58847	960.95386	-1296.7627	147.80879	880.51074	-1249.58252	96.4065	850.99878	-1288.59058	167.13582	794.54449	-1285.87964	-55.12863	1399.62463	-863.71234	-124.51567	1211.18445	-778.04169	-135.67001	1089.15039	-765.41675	-145.79141	969.30518	-745.6488	-117.5564	819.64124	-772.54474	-170.82071	833.27081	-733.56104	-152.06709	750.44849	-731.00006	6.16907	958.86609	-1134.81909	17.71984	963.59436	-915.13171	-148.73029	987.34808	-1097.18018	-133.95366	984.55267	-930.23315	-69.94688	642.10944	-1180.44824	-77.1298	478.40179	-1151.73071	-156.27315	231.99934	-1137.48083	-194.41006	65.66171	-1088.1394	-238.95946	55.81191	-1043.2384	-53.37049	34.58994	-1084.54211	61.48594	645.21649	-861.14899	115.95705	533.78546	-891.18091	54.62635	278.28757	-891.49329	16.91656	95.96094	-931.89716	-24.24773	74.63602	-978.75726	158.638	43.60965	-924.78943	-72.70007	1697.3894	-1011.4928	NaN	NaN	NaN	NaN	NaN	NaN	NaN	NaN	NaN	NaN	NaN	NaN
